<?xml version="1.0" encoding="UTF-8"?>
<svg id="Layer_1" data-name="Layer 1" xmlns="http://www.w3.org/2000/svg" viewBox="0 0 206.59 153.67">
  <defs>
    <style>
      .cls-1 {
        letter-spacing: 0em;
      }

      .cls-2 {
        stroke: #fffbd2;
        stroke-width: 3px;
      }

      .cls-2, .cls-3, .cls-4 {
        stroke-miterlimit: 10;
      }

      .cls-2, .cls-4 {
        fill: none;
      }

      .cls-5 {
        letter-spacing: -.04em;
      }

      .cls-6 {
        letter-spacing: -.13em;
      }

      .cls-7, .cls-8 {
        fill: #fff6ca;
      }

      .cls-9 {
        fill: #fffbc8;
      }

      .cls-3 {
        fill: #304a2e;
      }

      .cls-3, .cls-4 {
        stroke: #fdf9ca;
        stroke-width: 4px;
      }

      .cls-8 {
        font-family: SignPainter-HouseScript, SignPainter;
        font-size: 50.73px;
      }
    </style>
  </defs>
  <rect class="cls-3" x="2" y="2" width="202.59" height="149.67"/>
  <rect class="cls-4" x="22.86" y="82.65" width="165.38" height="46.83" rx=".98" ry=".98"/>
  <text class="cls-8" transform="translate(37.98 122.41)"><tspan class="cls-5" x="0" y="0">P</tspan><tspan x="19.53" y="0">an</tspan><tspan class="cls-1" x="59.66" y="0">n</tspan><tspan x="78.99" y="0">ul</tspan><tspan class="cls-6" x="111.16" y="0">’</tspan><tspan x="116.23" y="0">s</tspan></text>
  <path class="cls-7" d="m71.08,87.29c-1.66,3.09.69,5.01,1.92,7.38,1.36-3.71,4.7-3.91,7.63-4.87.07.12.13.24.2.36-1.35.8-2.7,1.59-4.05,2.4-.55.33-1.08.66-1.42,1.28-1.23,2.27-.49,3.92,2.22,4.87.37.13.76.17,1.14.4-1.98.67-3.98.63-6.05.43-2.25-.22-3.28-2.59-5.49-2.98.94-.9,1.75-1.77,3.06-.89.14.1.45-.07.68-.12-.06-.24-.08-.49-.18-.71-.1-.23-.28-.41-.43-.62-1.66-2.31-1.45-4.69.77-6.93Z"/>
  <polygon class="cls-9" points="51.44 40.94 51.44 43.1 54.36 46.12 56.3 46.73 57.13 48.03 59.54 48.7 62.88 51.85 70.11 53.32 51.44 40.94"/>
  <polygon class="cls-9" points="160.26 40.98 164.49 40.99 160.69 42.36 159.96 43.19 158.42 43.98 156.35 45.28 149.53 46.41 160.26 40.98"/>
  <polyline class="cls-9" points="108.61 36.23 108.54 37.35 116.27 46.16 116.64 39.57 109.03 29.81"/>
  <polygon class="cls-9" points="116.07 43.84 135.06 58.92 116.28 39.17 116.07 43.84"/>
  <polygon class="cls-9" points="130.45 37.16 132.36 40.78 135.06 41.03 136.36 43.38 139.61 43.38 143.11 45.74 149.53 45.74 130.45 37.16"/>
  <polygon class="cls-9" points="149.53 45.74 165.71 55.8 143.11 45.74 149.53 45.74"/>
  <polygon class="cls-9" points="71.41 53.29 59.85 60.44 69.53 52.91 71.41 53.29"/>
  <polygon class="cls-9" points="124.78 40.03 136.12 49.78 129.38 42.06 124.78 40.03"/>
  <polyline class="cls-9" points="187.83 32.52 187.98 36.36 157.01 51.61 178.85 36.76 188.08 29.16 189.16 30.77"/>
  <polygon class="cls-9" points="167.74 37.1 179.47 37.13 168.17 38.47 167.44 39.3 165.9 40.1 163.83 41.39 157.01 42.52 167.74 37.1"/>
  <polygon class="cls-9" points="120.46 35.63 121.24 39.12 125.57 40.34 120.46 35.63"/>
  <polygon class="cls-9" points="34.39 35.32 34.39 39.81 36.88 40.95 38.09 46.41 59.85 60.44 42.59 43.77 34.39 35.32"/>
  <polygon class="cls-9" points="109 30.05 109.96 32.84 109.53 36.48 100.36 39.62 95.44 40.33 83.8 45.54 109 30.05"/>
  <polygon class="cls-9" points="34.44 35.16 35.45 36.8 12.96 47.48 34.44 35.16"/>
  <polyline class="cls-2" points="2.49 52.76 34.49 34.42 42.75 42.94 51.5 40.28 70.67 52.96 109.29 29.1 115.04 36.82 120.8 34.95 125.67 39.69 130.24 36.53 149.53 45.74 168.08 36.55 178.2 36.58 188.4 28.56 203.12 39.81"/>
</svg>