<?xml version="1.0" encoding="utf-8"?>
<!-- Generator: Adobe Illustrator 27.7.0, SVG Export Plug-In . SVG Version: 6.00 Build 0)  -->
<svg version="1.1" id="Layer_2_00000013163036144267727390000002471323653969293966_"
	 xmlns="http://www.w3.org/2000/svg" xmlns:xlink="http://www.w3.org/1999/xlink" x="0px" y="0px" viewBox="0 0 641.3 115.6"
	 style="enable-background:new 0 0 641.3 115.6;" xml:space="preserve">
<style type="text/css">
	.st0{fill:none;stroke:#231F20;stroke-width:4;stroke-miterlimit:10;}
	.st1{fill:none;}
	.st2{fill:#231F20;}
	.st3{font-family:'SignPainter-HouseScript';}
	.st4{font-size:50.7343px;}
	.st5{fill:none;stroke:#231F20;stroke-width:5.4232;stroke-miterlimit:10;}
</style>
<path class="st0" d="M415.3,113H251.9c-0.5,0-1-0.4-1-1V67.1c0-0.5,0.4-1,1-1h163.4c0.5,0,1,0.4,1,1V112
	C416.3,112.5,415.8,113,415.3,113z"/>
<rect x="266" y="74.1" class="st1" width="154.4" height="38.8"/>
<text transform="matrix(1 0 0 1 266.0225 105.8786)" class="st2 st3 st4">Pannul’s</text>
<path class="st2" d="M299.1,70.8c-1.7,3.1,0.7,5,1.9,7.4c1.4-3.7,4.7-3.9,7.6-4.9c0.1,0.1,0.1,0.2,0.2,0.4c-1.3,0.8-2.7,1.6-4,2.4
	c-0.6,0.3-1.1,0.7-1.4,1.3c-1.2,2.3-0.5,3.9,2.2,4.9c0.4,0.1,0.8,0.2,1.1,0.4c-2,0.7-4,0.6-6,0.4c-2.2-0.2-3.3-2.6-5.5-3
	c0.9-0.9,1.7-1.8,3.1-0.9c0.1,0.1,0.5-0.1,0.7-0.1c-0.1-0.2-0.1-0.5-0.2-0.7c-0.1-0.2-0.3-0.4-0.4-0.6
	C296.7,75.4,296.9,73,299.1,70.8z"/>
<polygon class="st2" points="212.8,22.3 212.8,25.7 218.9,30.4 223,31.4 224.7,33.4 229.8,34.4 236.8,39.3 252,41.6 "/>
<polygon class="st2" points="441.2,22.4 450.1,22.4 442.2,24.6 440.6,25.8 437.4,27.1 433,29.1 418.7,30.9 "/>
<polyline class="st2" points="332.8,15 332.7,16.8 348.9,30.5 349.7,20.2 333.7,5 "/>
<polygon class="st2" points="348.5,26.9 388.4,50.3 348.9,19.6 "/>
<polygon class="st2" points="378.7,16.5 382.7,22.1 388.4,22.5 391.1,26.2 397.9,26.2 405.2,29.8 418.7,29.8 "/>
<polygon class="st2" points="418.7,29.8 452.7,45.5 405.2,29.8 "/>
<polygon class="st2" points="254.7,41.6 230.5,52.7 250.8,41 "/>
<polygon class="st2" points="366.8,20.9 390.6,36.1 376.4,24.1 "/>
<polyline class="st2" points="499.1,9.2 499.4,15.2 434.4,39 480.3,15.8 499.7,4 501.9,6.5 "/>
<polygon class="st2" points="457,16.4 481.6,16.4 457.9,18.5 456.3,19.8 453.1,21 448.7,23.1 434.4,24.8 "/>
<polygon class="st2" points="357.7,14.1 359.3,19.5 368.4,21.4 "/>
<polygon class="st2" points="177,13.6 177,20.6 182.2,22.4 184.8,30.9 230.5,52.7 194.2,26.7 "/>
<polygon class="st2" points="333.6,5.4 335.7,9.7 334.8,15.4 315.5,20.3 305.2,21.4 280.7,29.5 "/>
<polygon class="st2" points="177.1,13.3 179.2,15.9 132,32.5 "/>
<polyline class="st5" points="110,40.7 177.2,12.2 194.6,25.5 212.9,21.3 253.2,41.1 334.2,3.9 346.3,15.9 358.4,13 368.6,20.4 
	378.2,15.5 418.7,29.8 457.7,15.5 478.9,15.6 500.3,3.1 531.2,20.6 "/>
</svg>
