<?xml version="1.0" encoding="UTF-8"?>
<svg id="Layer_1" data-name="Layer 1" xmlns="http://www.w3.org/2000/svg" viewBox="0 0 325.67 128.98">
  <defs>
    <style>
      .cls-1 {
        letter-spacing: 0em;
      }

      .cls-2 {
        letter-spacing: -.04em;
      }

      .cls-3 {
        letter-spacing: -.13em;
      }

      .cls-4, .cls-5 {
        fill: #231f20;
      }

      .cls-6 {
        fill: none;
        stroke: #231f20;
        stroke-miterlimit: 10;
        stroke-width: 7.59px;
      }

      .cls-5 {
        font-family: SignPainter-HouseScript, SignPainter;
        font-size: 96.33px;
      }
    </style>
  </defs>
  <rect class="cls-6" x="3.8" y="6.38" width="314.01" height="88.92" rx=".98" ry=".98"/>
  <text class="cls-5" transform="translate(32.51 81.88)"><tspan class="cls-2" x="0" y="0">P</tspan><tspan x="37.09" y="0">an</tspan><tspan class="cls-1" x="113.28" y="0">n</tspan><tspan x="149.98" y="0">ul</tspan><tspan class="cls-3" x="211.05" y="0">’</tspan><tspan x="220.69" y="0">s</tspan></text>
  <path class="cls-4" d="m95.35,15.2c-3.15,5.86,1.31,9.5,3.64,14,2.58-7.04,8.92-7.42,14.48-9.25.12.23.25.45.37.68-2.56,1.52-5.13,3.03-7.69,4.56-1.05.63-2.06,1.26-2.7,2.44-2.33,4.31-.93,7.45,4.22,9.24.69.24,1.44.33,2.17.76-3.76,1.28-7.57,1.19-11.48.81-4.27-.41-6.23-4.91-10.42-5.65,1.79-1.7,3.32-3.36,5.82-1.69.27.18.85-.13,1.29-.22-.11-.45-.16-.94-.35-1.35-.2-.43-.54-.79-.82-1.18-3.15-4.38-2.76-8.91,1.45-13.16Z"/>
</svg>